<?xml version="1.0" encoding="utf-8"?>
<!-- Generator: Adobe Illustrator 26.0.1, SVG Export Plug-In . SVG Version: 6.00 Build 0)  -->
<svg version="1.1" id="图层_1" xmlns="http://www.w3.org/2000/svg" xmlns:xlink="http://www.w3.org/1999/xlink" x="0px" y="0px"
	 viewBox="0 0 195.6 135.7" style="enable-background:new 0 0 195.6 135.7;" xml:space="preserve">
<style type="text/css">
	.st0{fill-rule:evenodd;clip-rule:evenodd;fill:#004482;}
	.st1{fill-rule:evenodd;clip-rule:evenodd;fill:#659AD2;}
	.st2{fill-rule:evenodd;clip-rule:evenodd;fill:#FFFFFF;}
	.st3{fill-rule:evenodd;clip-rule:evenodd;fill:#00599C;}
	.st4{fill:#4D4D4D;}
</style>
<g>
	<path id="path2" class="st0" d="M95.3,0.8c1.4-0.8,3-0.8,4.4,0c6.7,3.8,26.9,15.1,33.6,18.9c1.4,0.8,2.2,2.2,2.2,3.7
		c0,7.5,0,30.2,0,37.7c0,1.5-0.8,2.9-2.2,3.7c-6.7,3.8-26.9,15.1-33.6,18.9c-1.4,0.8-3,0.8-4.4,0c-6.7-3.8-26.9-15.2-33.6-18.9
		c-1.4-0.8-2.2-2.2-2.2-3.7c0-7.5,0-30.2,0-37.7c0-1.5,0.8-2.9,2.2-3.7C68.4,15.9,88.6,4.5,95.3,0.8z"/>
	<path id="path4" class="st1" d="M60.1,63c-0.5-0.7-0.6-1.4-0.6-2.3c0-7.5,0-30,0-37.5c0-1.5,0.8-2.9,2.2-3.7
		c6.7-3.7,26.8-15,33.5-18.7c1.4-0.8,3.2-0.7,4.5,0c6.7,3.7,26.8,14.9,33.5,18.6c0.5,0.3,1,0.7,1.3,1.2L60.1,63z"/>
	<path id="path6" class="st2" d="M97.5,14.2c15.5,0,28,12.5,28,28s-12.5,28-28,28s-28-12.5-28-28S82,14.2,97.5,14.2z M97.5,28.2
		c7.7,0,14,6.3,14,14s-6.3,14-14,14s-14-6.3-14-14S89.8,28.2,97.5,28.2z"/>
	<path id="path8" class="st3" d="M134.5,20.6c1,1,1,2.4,1,3.6c0,7.6-0.1,29.2,0,36.8c0,0.8-0.3,1.6-0.6,2.3L96.7,42.2L134.5,20.6z"
		/>
</g>
<g>
	<g>
		<path class="st4" d="M12.7,113.9c-1.2,0.6-2.8,1-4.7,1c-2.4,0-4.3-0.8-5.8-2.3c-1.4-1.5-2.2-3.5-2.2-6.1c0-2.7,0.8-4.9,2.5-6.5
			c1.6-1.7,3.7-2.5,6.2-2.5c1.6,0,2.9,0.3,4,0.7v2.3c-1.2-0.7-2.6-1-4-1c-1.9,0-3.4,0.6-4.6,1.9c-1.1,1.2-1.8,2.9-1.8,5
			c0,2,0.5,3.6,1.7,4.8c1.1,1.1,2.6,1.8,4.3,1.8s3.1-0.4,4.3-1.1L12.7,113.9L12.7,113.9z"/>
		<path class="st4" d="M25.9,111.5c0,0.8,0.1,1.4,0.2,1.9c-1.4,0.9-2.9,1.9-4.3,3.1l-1.1-1.5c0.5-0.4,0.7-1.1,0.7-1.9v-8.6h-2.5
			v-1.6h4.2v10.5C24.1,112.7,25,112.1,25.9,111.5z M21.2,95.7c1.6,1.6,2.7,2.8,3.4,3.6l-1.5,1.3c-0.9-1.2-2-2.5-3.3-3.7L21.2,95.7z
			 M25,105h3.7l0.4-3.1H26v-1.5h3.4l0.4-2.6h-4.2v-1.4h14.1v1.5h-8.3l-0.4,2.6h6.9v4.6h2.7v1.5H25.1L25,105L25,105z M26.9,108.8
			h11.7v8h-1.7v-1.3h-8.4v1.3h-1.6V108.8L26.9,108.8z M36.9,110.3h-8.4v3.6h8.4V110.3z M36.1,102h-5.4l-0.4,3.1h5.8V102z"/>
		<path class="st4" d="M41.5,98.4h10.2c-0.4-0.8-0.8-1.5-1.3-2.4l1.7-0.8c0.6,1,1.1,1.9,1.6,2.7l-1,0.5h10.1v1.6H41.5V98.4
			L41.5,98.4z M43.6,101.9h17v1.5h-17V101.9z M43.6,105.3h17v1.5h-17V105.3z M44.1,108.7h16v8.1h-1.8v-1.2H45.9v1.3h-1.8V108.7z
			 M58.2,110.2H45.8v3.8h12.5L58.2,110.2L58.2,110.2z"/>
		<path class="st4" d="M63.3,110.8c1.4-2.1,2.6-4.6,3.3-7.4h-3v-1.5H67v-3.4c-0.9,0.1-1.9,0.3-2.8,0.4c-0.1-0.5-0.3-1-0.4-1.5
			c2.5-0.2,4.9-0.6,7.5-1.1l0.4,1.5c-1,0.2-2,0.4-3.1,0.5v3.6h3v1.4h-3v2.9l0.9-0.7c0.6,0.6,1.4,1.5,2.6,2.8l-1.3,1.1
			c-0.9-1.1-1.5-1.9-2.1-2.6v10.1h-1.6v-10.4c-0.8,2.5-1.8,4.6-2.9,6.3C63.9,112.1,63.6,111.4,63.3,110.8z M71,114.2h6.2V111h-4.9
			v-1.5h4.9v-3h-5.5V105h12.7v1.5h-5.5v3h4.9v1.5h-4.9v3.2h6.2v1.5H70.9L71,114.2L71,114.2z M72.8,96.5h10.8v7.5h-1.7v-0.9h-7.5v0.9
			h-1.7L72.8,96.5L72.8,96.5z M81.9,97.9h-7.5v3.6h7.5V97.9z"/>
		<path class="st4" d="M95.9,96l1.6-0.9c0.5,0.7,1.1,1.5,1.6,2.2L98,97.9h9.3v1.6H89.9v5.9c0,5.1-1,9-3,11.5c-0.4-0.4-0.8-1-1.2-1.5
			c1.6-1.9,2.4-5,2.4-9.5v-8h9.2C96.7,97.3,96.3,96.6,95.9,96z M90.5,107.1h7.7c-1.3-1-2.7-1.9-3.9-2.7l1.1-1.1
			c1.1,0.6,2.1,1.3,3.1,1.9l4-2.3H91.9v-1.6h13.8v1.6l-5.7,3.3c0.2,0.1,0.4,0.3,0.5,0.4l-0.6,0.4h7.2v1.6l-1.9,3.9
			c-0.4-0.3-1-0.5-1.6-0.8l1.6-3.1h-5.3v5.2c0,1.8-0.8,2.7-2.5,2.7c-0.9,0-1.9,0-3.3,0c-0.1-0.5-0.2-1.1-0.3-1.9
			c1.1,0.2,2.1,0.3,3,0.3c0.8,0,1.2-0.4,1.2-1.2v-4.9h-7.5L90.5,107.1L90.5,107.1L90.5,107.1z"/>
		<path class="st4" d="M115.6,110.3c0,0.7,0.1,1.3,0.2,1.9c-1.9,1.3-3.4,2.3-4.4,3.1l-1.1-1.4c0.5-0.4,0.7-1.1,0.7-1.9v-7.8h-2.7
			v-1.6h4.4v9.7C113.6,111.7,114.6,111,115.6,110.3z M111.2,96.1c1.1,1.1,2.2,2.2,3.2,3.4l-1.5,1.2c-1.1-1.3-2-2.6-3-3.4L111.2,96.1
			z M115.6,106.5V105h11.8v1.5c-1.1,2.6-2.6,4.5-4.2,5.9c1.9,1.2,4.1,2,6.7,2.6c-0.5,0.6-1,1.2-1.3,1.8c-2.6-0.7-4.9-1.9-6.8-3.3
			c-1.9,1.3-4.5,2.5-7.5,3.4c-0.4-0.5-0.8-1.1-1.1-1.6c2.9-0.8,5.3-1.8,7.2-3c-1.7-1.6-2.9-3.6-3.7-5.8
			C116.6,106.5,115.6,106.5,115.6,106.5z M124.7,98h-5.5v0.6c0,2.7-1.2,4.7-3.6,6c-0.4-0.4-0.8-1-1.2-1.3c2.1-1.1,3.2-2.7,3.2-4.6
			v-2.3h8.8v4.4c0,0.6,0.4,1,1,1h2.4c-0.1,0.6-0.1,1.1-0.2,1.6h-2.9c-1.3,0-2-0.8-2-2.3V98L124.7,98z M118.3,106.5
			c0.7,1.9,1.9,3.4,3.4,4.9c1.5-1.1,2.7-2.8,3.7-4.9H118.3z"/>
		<path class="st4" d="M139.3,110.8c0,0.8,0.1,1.4,0.2,1.9c-2.3,1.4-4.2,2.7-5.7,3.8l-1.1-1.5c0.5-0.4,0.8-1.1,0.8-1.9v-8.6h-3.1
			v-1.6h4.9v10.6C136.5,112.6,137.9,111.7,139.3,110.8z M132.6,95.7c1.6,1.6,2.7,2.8,3.4,3.6l-1.5,1.3c-0.9-1.2-2-2.5-3.3-3.7
			L132.6,95.7z M137.4,102.9h6.4v-7.5h1.9v7.5h6.4v1.6h-6.4v12.3h-1.9v-12.3h-6.4V102.9z"/>
		<path class="st4" d="M174.3,111.5c-0.4,0.6-0.9,1.1-1.1,1.6c-1.3-0.6-2.6-1.4-3.7-2.3v1.2h-5.2v2.3h8.5v1.4h-18.6v-1.4h8.5V112
			h-5.3v-1.1c-1.1,1-2.4,1.8-3.6,2.5c-0.3-0.4-0.6-0.9-1.1-1.4c2.2-1.1,4.2-2.5,5.8-4.2h-5.6v-1.4h4.3v-7.2h-3.6v-1.4h3.6v-2.4h1.6
			v2.4h9.4v-2.4h1.6v2.4h3.6v1.4h-3.6v7.3h4.2v1.4h-5.5C170,109.4,172,110.7,174.3,111.5z M162.7,108.6h1.6v2h4.9
			c-1.1-0.8-1.9-1.8-2.8-2.8h-5.9c-0.9,1.1-1.9,1.9-2.8,2.8h5V108.6z M158.9,100.6h9.4v-1.5h-9.4V100.6z M158.9,103.5h9.4V102h-9.4
			V103.5z M158.9,106.4h9.4v-1.5h-9.4V106.4z"/>
		<path class="st4" d="M174.7,107.7c1.7-2.7,2.8-5.7,3.5-9h-2.8v-1.4h7.7v1.4h-3.4c-0.4,1.7-0.8,3.3-1.4,4.8h4v11.1h-1.4v-1.5h-2.4
			v2h-1.4v-8.7c-0.4,0.8-0.8,1.6-1.2,2.3C175.5,108.5,175.1,108.1,174.7,107.7z M180.9,104.9h-2.4v6.9h2.4V104.9z M193.7,106.2v-1.1
			h-3.2v8.7h3.5v-6.3h1.6v8.8H194v-1h-10.1v-7.9h1.6v6.3h3.5V105h-4.7v-7.3h1.6v5.7h3.1v-8h1.6v8h3.2v-5.5h1.6v8.3H193.7z"/>
	</g>
	<g>
		<g>
			<path class="st4" d="M31.3,132.3c-0.8,0.4-1.6,0.4-2.4,0.4c-1.2,0-2.3-0.4-3.1-1.3c-0.8-0.9-1.2-1.9-1.2-3.4
				c0-1.5,0.4-2.7,1.3-3.6s1.9-1.4,3.4-1.4c0.7,0,1.4,0.1,2,0.4v0.7c-0.6-0.3-1.3-0.4-2-0.4c-1.1,0-2.1,0.4-2.8,1.1
				c-0.7,0.8-1.1,1.9-1.1,3.2c0,1.2,0.4,2.3,1.1,3s1.6,1.1,2.7,1.1c0.9,0,1.6-0.2,2.3-0.5L31.3,132.3L31.3,132.3z"/>
			<path class="st4" d="M37.7,128.9v3.7h-0.6v-9.4h2.2c1,0,1.7,0.3,2.2,0.7s0.8,1.1,0.8,1.9c0,0.9-0.3,1.6-0.9,2.1
				c-0.5,0.5-1.3,0.9-2.4,0.9h-1.3V128.9z M37.7,123.8v4.4H39c0.9,0,1.5-0.2,1.9-0.6c0.4-0.4,0.6-1,0.6-1.7c0-1.4-0.8-2.1-2.4-2.1
				C39.2,123.8,37.7,123.8,37.7,123.8z"/>
			<path class="st4" d="M47.3,126.6c-0.2-0.2-0.4-0.2-0.7-0.2c-0.5,0-1,0.3-1.3,0.8s-0.5,1.3-0.5,2.3v3.1h-0.6v-6.7h0.6v1.5l0,0
				c0.2-0.5,0.4-0.9,0.7-1.1c0.4-0.3,0.7-0.4,1.1-0.4c0.3,0,0.4,0,0.7,0.1C47.3,126,47.3,126.6,47.3,126.6z"/>
			<path class="st4" d="M51,132.8c-1,0-1.8-0.4-2.3-1s-0.9-1.5-0.9-2.5c0-1.1,0.3-1.9,0.9-2.7c0.6-0.6,1.4-1,2.4-1s1.7,0.4,2.3,1
				c0.5,0.6,0.8,1.5,0.8,2.6s-0.3,1.9-0.9,2.6C52.7,132.4,52,132.8,51,132.8z M51,126.3c-0.8,0-1.4,0.3-1.9,0.8
				c-0.4,0.5-0.7,1.2-0.7,2.2c0,0.9,0.3,1.6,0.7,2.1c0.4,0.5,1.1,0.8,1.9,0.8s1.4-0.3,1.9-0.8c0.4-0.5,0.6-1.2,0.6-2.2
				s-0.2-1.7-0.6-2.2C52.5,126.6,51.8,126.3,51,126.3z"/>
			<path class="st4" d="M61.1,132.1c0,1.2-0.3,2.2-0.8,2.7c-0.5,0.6-1.4,0.9-2.6,0.9c-0.6,0-1.3-0.2-1.9-0.5v-0.6
				c0.7,0.4,1.4,0.6,2,0.6c1.9,0,2.7-1,2.7-2.9v-0.9l0,0c-0.5,0.9-1.3,1.3-2.4,1.3c-0.8,0-1.5-0.3-2-0.9s-0.8-1.4-0.8-2.5
				s0.3-1.9,0.9-2.7c0.5-0.7,1.3-1,2.2-1c1,0,1.7,0.4,2.1,1.2l0,0v-1.1h0.6L61.1,132.1L61.1,132.1z M60.6,128.5
				c0-0.6-0.2-1.1-0.6-1.5s-0.9-0.6-1.6-0.6s-1.3,0.3-1.8,0.8c-0.4,0.5-0.7,1.3-0.7,2.2s0.2,1.6,0.6,2.1s1,0.8,1.6,0.8
				c0.7,0,1.3-0.3,1.7-0.7c0.4-0.4,0.6-1.1,0.6-1.7v-1.4L60.6,128.5L60.6,128.5z"/>
			<path class="st4" d="M66.4,126.6c-0.2-0.2-0.4-0.2-0.7-0.2c-0.5,0-1,0.3-1.3,0.8c-0.4,0.5-0.5,1.3-0.5,2.3v3.1h-0.5v-6.7h0.5v1.5
				l0,0c0.2-0.5,0.4-0.9,0.7-1.1c0.4-0.3,0.7-0.4,1.1-0.4c0.3,0,0.4,0,0.7,0.1L66.4,126.6L66.4,126.6z"/>
			<path class="st4" d="M71.7,132.6v-1.3l0,0c-0.2,0.4-0.5,0.8-1,1.1s-0.9,0.4-1.3,0.4c-0.6,0-1.1-0.2-1.5-0.5
				c-0.4-0.4-0.5-0.8-0.5-1.3c0-1.1,0.8-1.9,2.3-2.1l2-0.3c0-1.4-0.5-2.1-1.6-2.1c-0.7,0-1.4,0.3-2.1,0.9v-0.8
				c0.3-0.2,0.6-0.4,1-0.5c0.4-0.2,0.8-0.2,1.2-0.2c0.7,0,1.2,0.2,1.6,0.6c0.4,0.4,0.5,1.1,0.5,1.9v4.3L71.7,132.6L71.7,132.6z
				 M69.9,129.2c-0.7,0.1-1.1,0.3-1.5,0.4c-0.3,0.3-0.4,0.6-0.4,1.1c0,0.4,0.1,0.7,0.4,1s0.6,0.4,1.1,0.4c0.6,0,1.1-0.3,1.6-0.7
				c0.4-0.4,0.6-1.1,0.6-1.9v-0.6L69.9,129.2z"/>
			<path class="st4" d="M82.7,132.6v-4c0-0.9-0.1-1.4-0.4-1.8c-0.3-0.4-0.7-0.5-1.2-0.5s-1,0.3-1.3,0.7c-0.4,0.4-0.5,1.1-0.5,1.7
				v3.9h-0.6v-4.1c0-1.5-0.5-2.2-1.7-2.2c-0.5,0-1,0.3-1.3,0.7c-0.4,0.4-0.5,1.1-0.5,1.8v3.9h-0.6V126h0.6v1.1l0,0
				c0.4-0.9,1.1-1.2,2-1.2c0.5,0,0.9,0.2,1.2,0.4c0.4,0.3,0.6,0.6,0.7,1.1c0.2-0.4,0.5-0.9,0.9-1.1c0.4-0.3,0.8-0.4,1.2-0.4
				c1.5,0,2.2,0.9,2.2,2.7v4.2h-0.7C82.7,132.8,82.7,132.6,82.7,132.6z"/>
			<path class="st4" d="M93.6,132.6v-4c0-0.9-0.1-1.4-0.4-1.8c-0.3-0.4-0.7-0.5-1.2-0.5s-1,0.3-1.3,0.7c-0.4,0.4-0.5,1.1-0.5,1.7
				v3.9h-0.6v-4.1c0-1.5-0.5-2.2-1.7-2.2c-0.5,0-1,0.3-1.3,0.7c-0.4,0.4-0.5,1.1-0.5,1.8v3.9h-0.6V126h0.6v1.1l0,0
				c0.4-0.9,1.1-1.2,2-1.2c0.5,0,0.9,0.2,1.2,0.4c0.4,0.3,0.6,0.6,0.7,1.1c0.2-0.4,0.5-0.9,0.9-1.1c0.4-0.3,0.8-0.4,1.2-0.4
				c1.5,0,2.2,0.9,2.2,2.7v4.2h-0.7C93.6,132.8,93.6,132.6,93.6,132.6z"/>
			<path class="st4" d="M96.5,124.2c-0.2,0-0.3-0.1-0.4-0.2c-0.1-0.1-0.2-0.2-0.2-0.4s0.1-0.3,0.2-0.4s0.2-0.2,0.4-0.2
				s0.3,0,0.4,0.1s0.2,0.2,0.2,0.4s-0.1,0.3-0.2,0.4C96.8,124.2,96.7,124.2,96.5,124.2z M96.3,132.6v-6.7h0.6v6.7H96.3z"/>
			<path class="st4" d="M103.5,132.6v-3.9c0-1.6-0.6-2.4-1.8-2.4c-0.6,0-1.1,0.3-1.6,0.7c-0.4,0.4-0.6,1.1-0.6,1.8v3.8h-0.6v-6.7
				h0.6v1.2l0,0c0.5-0.9,1.2-1.4,2.3-1.4c0.7,0,1.2,0.3,1.7,0.7c0.4,0.4,0.5,1.1,0.5,2v4.1L103.5,132.6L103.5,132.6z"/>
			<path class="st4" d="M111.5,132.1c0,1.2-0.3,2.2-0.8,2.7c-0.5,0.6-1.4,0.9-2.6,0.9c-0.6,0-1.3-0.2-1.9-0.5v-0.6
				c0.7,0.4,1.4,0.6,2,0.6c1.9,0,2.7-1,2.7-2.9v-0.9l0,0c-0.5,0.9-1.3,1.3-2.4,1.3c-0.8,0-1.5-0.3-2-0.9s-0.8-1.4-0.8-2.5
				s0.3-1.9,0.9-2.7c0.5-0.7,1.3-1,2.2-1c1,0,1.7,0.4,2.1,1.2l0,0v-1.1h0.6V132.1L111.5,132.1z M110.9,128.5c0-0.6-0.2-1.1-0.6-1.5
				c-0.4-0.4-0.9-0.6-1.6-0.6c-0.7,0-1.3,0.3-1.8,0.8c-0.4,0.5-0.7,1.3-0.7,2.2s0.2,1.6,0.6,2.1c0.4,0.5,1,0.8,1.6,0.8
				c0.7,0,1.3-0.3,1.7-0.7s0.6-1.1,0.6-1.7v-1.4L110.9,128.5L110.9,128.5z"/>
			<path class="st4" d="M117.4,132.6v-9.4h0.6v8.7h3.7v0.6C121.7,132.6,117.4,132.6,117.4,132.6z"/>
			<path class="st4" d="M127.4,132.6v-1.3l0,0c-0.2,0.4-0.5,0.8-1,1.1c-0.4,0.3-0.9,0.4-1.3,0.4c-0.6,0-1.1-0.2-1.5-0.5
				c-0.4-0.4-0.5-0.8-0.5-1.3c0-1.1,0.8-1.9,2.3-2.1l2-0.3c0-1.4-0.5-2.1-1.6-2.1c-0.7,0-1.4,0.3-2.1,0.9v-0.8
				c0.3-0.2,0.6-0.4,1-0.5c0.4-0.2,0.8-0.2,1.2-0.2c0.7,0,1.2,0.2,1.6,0.6c0.4,0.4,0.5,1.1,0.5,1.9v4.3L127.4,132.6L127.4,132.6z
				 M125.6,129.2c-0.7,0.1-1.1,0.3-1.5,0.4c-0.3,0.3-0.4,0.6-0.4,1.1c0,0.4,0.1,0.7,0.4,1c0.3,0.3,0.6,0.4,1.1,0.4
				c0.6,0,1.1-0.3,1.6-0.7c0.4-0.4,0.6-1.1,0.6-1.9v-0.6L125.6,129.2z"/>
			<path class="st4" d="M134.5,132.6v-3.9c0-1.6-0.6-2.4-1.8-2.4c-0.6,0-1.1,0.3-1.6,0.7c-0.4,0.4-0.6,1.1-0.6,1.8v3.8h-0.6v-6.7
				h0.6v1.2l0,0c0.5-0.9,1.2-1.4,2.3-1.4c0.7,0,1.2,0.3,1.7,0.7c0.4,0.4,0.5,1.1,0.5,2v4.1L134.5,132.6L134.5,132.6z"/>
			<path class="st4" d="M142.5,132.1c0,1.2-0.3,2.2-0.8,2.7c-0.5,0.6-1.4,0.9-2.6,0.9c-0.6,0-1.3-0.2-1.9-0.5v-0.6
				c0.7,0.4,1.4,0.6,2,0.6c1.9,0,2.7-1,2.7-2.9v-0.9l0,0c-0.5,0.9-1.3,1.3-2.4,1.3c-0.8,0-1.5-0.3-2-0.9c-0.5-0.6-0.8-1.4-0.8-2.5
				s0.3-1.9,0.9-2.7c0.5-0.7,1.3-1,2.2-1c1,0,1.7,0.4,2.1,1.2l0,0v-1.1h0.6V132.1L142.5,132.1z M141.9,128.5c0-0.6-0.2-1.1-0.6-1.5
				c-0.4-0.4-0.9-0.6-1.6-0.6s-1.3,0.3-1.8,0.8c-0.4,0.5-0.7,1.3-0.7,2.2s0.2,1.6,0.6,2.1s1,0.8,1.6,0.8c0.7,0,1.3-0.3,1.7-0.7
				s0.6-1.1,0.6-1.7v-1.4L141.9,128.5L141.9,128.5z"/>
			<path class="st4" d="M149,132.6v-1.2l0,0c-0.4,0.9-1.1,1.4-2.1,1.4c-1.6,0-2.4-1-2.4-3v-3.9h0.6v3.7c0,0.9,0.2,1.6,0.4,1.9
				c0.3,0.4,0.8,0.6,1.4,0.6c0.6,0,1.1-0.3,1.5-0.7s0.6-1.1,0.6-1.9v-3.8h0.6v6.7L149,132.6L149,132.6z"/>
			<path class="st4" d="M155.8,132.6v-1.3l0,0c-0.2,0.4-0.5,0.8-1,1.1c-0.4,0.3-0.9,0.4-1.3,0.4c-0.6,0-1.1-0.2-1.5-0.5
				c-0.4-0.4-0.5-0.8-0.5-1.3c0-1.1,0.8-1.9,2.3-2.1l2-0.3c0-1.4-0.5-2.1-1.6-2.1c-0.7,0-1.4,0.3-2.1,0.9v-0.8
				c0.3-0.2,0.6-0.4,1-0.5c0.4-0.2,0.8-0.2,1.2-0.2c0.7,0,1.2,0.2,1.6,0.6c0.4,0.4,0.5,1.1,0.5,1.9v4.3L155.8,132.6L155.8,132.6z
				 M154,129.2c-0.7,0.1-1.1,0.3-1.5,0.4c-0.3,0.3-0.4,0.6-0.4,1.1c0,0.4,0.1,0.7,0.4,1c0.3,0.3,0.6,0.4,1.1,0.4
				c0.6,0,1.1-0.3,1.6-0.7c0.4-0.4,0.6-1.1,0.6-1.9v-0.6L154,129.2z"/>
			<path class="st4" d="M163.8,132.1c0,1.2-0.3,2.2-0.8,2.7c-0.5,0.6-1.4,0.9-2.6,0.9c-0.6,0-1.3-0.2-1.9-0.5v-0.6
				c0.7,0.4,1.4,0.6,2,0.6c1.9,0,2.7-1,2.7-2.9v-0.9l0,0c-0.5,0.9-1.3,1.3-2.4,1.3c-0.8,0-1.5-0.3-2-0.9c-0.5-0.6-0.8-1.4-0.8-2.5
				s0.3-1.9,0.9-2.7c0.5-0.7,1.3-1,2.2-1c1,0,1.7,0.4,2.1,1.2l0,0v-1.1h0.6V132.1L163.8,132.1z M163.2,128.5c0-0.6-0.2-1.1-0.6-1.5
				s-0.9-0.6-1.6-0.6s-1.3,0.3-1.8,0.8c-0.4,0.5-0.7,1.3-0.7,2.2s0.2,1.6,0.6,2.1c0.4,0.5,1,0.8,1.6,0.8c0.7,0,1.3-0.3,1.7-0.7
				s0.6-1.1,0.6-1.7v-1.4L163.2,128.5L163.2,128.5z"/>
			<path class="st4" d="M166.1,129.3c0,0.9,0.2,1.7,0.6,2.1c0.4,0.5,1,0.8,1.8,0.8c0.7,0,1.5-0.3,2.2-0.8v0.6
				c-0.7,0.5-1.5,0.7-2.3,0.7c-0.9,0-1.6-0.3-2.1-0.9s-0.8-1.5-0.8-2.7c0-1,0.3-1.8,0.8-2.5s1.2-1,2.1-1c0.8,0,1.5,0.3,1.9,0.9
				c0.4,0.6,0.7,1.4,0.7,2.4v0.3L166.1,129.3L166.1,129.3z M170.3,128.7c0-0.8-0.2-1.4-0.5-1.8c-0.4-0.4-0.8-0.6-1.4-0.6
				s-1.1,0.2-1.6,0.6c-0.4,0.4-0.7,1.1-0.8,1.8H170.3z"/>
		</g>
	</g>
</g>
</svg>
