<?xml version="1.0" encoding="utf-8"?>
<!-- Generator: Adobe Illustrator 26.0.1, SVG Export Plug-In . SVG Version: 6.00 Build 0)  -->
<svg version="1.1"
	 id="svg10" inkscape:version="1.0.1 (3bc2e813f5, 2020-09-07)" sodipodi:docname="icons8-c-programming.svg" xmlns:cc="http://creativecommons.org/ns#" xmlns:dc="http://purl.org/dc/elements/1.1/" xmlns:inkscape="http://www.inkscape.org/namespaces/inkscape" xmlns:rdf="http://www.w3.org/1999/02/22-rdf-syntax-ns#" xmlns:sodipodi="http://sodipodi.sourceforge.net/DTD/sodipodi-0.dtd" xmlns:svg="http://www.w3.org/2000/svg"
	 xmlns="http://www.w3.org/2000/svg" xmlns:xlink="http://www.w3.org/1999/xlink" x="0px" y="0px" viewBox="0 0 301.9 84"
	 style="enable-background:new 0 0 301.9 84;" xml:space="preserve">
<style type="text/css">
	
		.st0{clip-path:url(#SVGID_00000103237993859709949900000012611435626623460737_);fill-rule:evenodd;clip-rule:evenodd;fill:#004482;}
	
		.st1{clip-path:url(#SVGID_00000048498596506350575630000015529980036968823203_);fill-rule:evenodd;clip-rule:evenodd;fill:#659AD2;}
	
		.st2{clip-path:url(#SVGID_00000068643006521392882450000004929387456860646053_);fill-rule:evenodd;clip-rule:evenodd;fill:#FFFFFF;}
	
		.st3{clip-path:url(#SVGID_00000102507815944006575170000006256857871906852786_);fill-rule:evenodd;clip-rule:evenodd;fill:#00599C;}
	.st4{clip-path:url(#SVGID_00000178183493959601222050000014286397219150661776_);}
	.st5{fill:#4D4D4D;}
	.st6{clip-path:url(#SVGID_00000084531540744313431410000000745391867330221440_);}
</style>
<sodipodi:namedview  bordercolor="#666666" borderopacity="1" fit-margin-bottom="0" fit-margin-left="0" fit-margin-right="0" fit-margin-top="0" gridtolerance="10" guidetolerance="10" id="namedview12" inkscape:current-layer="svg10" inkscape:cx="190" inkscape:cy="210.00282" inkscape:pageopacity="0" inkscape:pageshadow="2" inkscape:window-height="1056" inkscape:window-maximized="1" inkscape:window-width="1920" inkscape:window-x="0" inkscape:window-y="0" inkscape:zoom="1.4895833" objecttolerance="10" pagecolor="#ffffff" showgrid="false">
	</sodipodi:namedview>
<g>
	<g>
		<defs>
			<rect id="SVGID_1_" x="-7" y="-4.5" width="321.6" height="92"/>
		</defs>
		<clipPath id="SVGID_00000138541626850996518930000014820150322993350831_">
			<use xlink:href="#SVGID_1_"  style="overflow:visible;"/>
		</clipPath>
		
			<path id="path2" style="clip-path:url(#SVGID_00000138541626850996518930000014820150322993350831_);fill-rule:evenodd;clip-rule:evenodd;fill:#004482;" d="
			M35.8,0.6c1.4-0.8,3-0.8,4.4,0c6.7,3.8,26.9,15.1,33.6,18.9c1.4,0.8,2.2,2.2,2.2,3.7c0,7.5,0,30.2,0,37.7c0,1.5-0.8,2.9-2.2,3.7
			c-6.7,3.8-26.9,15.1-33.6,18.9c-1.4,0.8-3,0.8-4.4,0C29.1,79.7,8.9,68.3,2.2,64.6C0.8,63.8,0,62.4,0,60.9c0-7.5,0-30.2,0-37.7
			c0-1.5,0.8-2.9,2.2-3.7C8.9,15.7,29.1,4.3,35.8,0.6z"/>
	</g>
	<g>
		<defs>
			<rect id="SVGID_00000036967012703704580510000017834895420067994297_" x="-7" y="-4.5" width="321.6" height="92"/>
		</defs>
		<clipPath id="SVGID_00000141444712847151613700000002310708108336156042_">
			<use xlink:href="#SVGID_00000036967012703704580510000017834895420067994297_"  style="overflow:visible;"/>
		</clipPath>
		
			<path id="path4" style="clip-path:url(#SVGID_00000141444712847151613700000002310708108336156042_);fill-rule:evenodd;clip-rule:evenodd;fill:#659AD2;" d="
			M0.6,62.8C0.1,62.1,0,61.4,0,60.5C0,53,0,30.5,0,23c0-1.5,0.8-2.9,2.2-3.7C8.9,15.6,29,4.3,35.7,0.6c1.4-0.8,3.2-0.7,4.5,0
			C46.9,4.3,67,15.5,73.7,19.2c0.5,0.3,1,0.7,1.3,1.2L0.6,62.8z"/>
	</g>
	<g>
		<defs>
			<rect id="SVGID_00000088096398815343642970000011988795200536898212_" x="-7" y="-4.5" width="321.6" height="92"/>
		</defs>
		<clipPath id="SVGID_00000028306056010262519330000000274501614506547892_">
			<use xlink:href="#SVGID_00000088096398815343642970000011988795200536898212_"  style="overflow:visible;"/>
		</clipPath>
		
			<path id="path6" style="clip-path:url(#SVGID_00000028306056010262519330000000274501614506547892_);fill-rule:evenodd;clip-rule:evenodd;fill:#FFFFFF;" d="
			M38,14c15.5,0,28,12.5,28,28S53.5,70,38,70S10,57.5,10,42S22.5,14,38,14z M38,28c7.7,0,14,6.3,14,14s-6.3,14-14,14s-14-6.3-14-14
			S30.3,28,38,28z"/>
	</g>
	<g>
		<defs>
			<rect id="SVGID_00000116926405548842570790000013338804588230241424_" x="-7" y="-4.5" width="321.6" height="92"/>
		</defs>
		<clipPath id="SVGID_00000047041548529135209460000016774396834519455619_">
			<use xlink:href="#SVGID_00000116926405548842570790000013338804588230241424_"  style="overflow:visible;"/>
		</clipPath>
		
			<path id="path8" style="clip-path:url(#SVGID_00000047041548529135209460000016774396834519455619_);fill-rule:evenodd;clip-rule:evenodd;fill:#00599C;" d="
			M75,20.4c1,1,1,2.4,1,3.6c0,7.6-0.1,29.2,0,36.8c0,0.8-0.3,1.6-0.6,2.3L37.2,42L75,20.4z"/>
	</g>
	<g>
		<defs>
			<rect id="SVGID_00000157270701782004372960000014528733560007315364_" x="-7" y="-4.5" width="321.6" height="92"/>
		</defs>
		<clipPath id="SVGID_00000014615572621492750440000010923366702359171246_">
			<use xlink:href="#SVGID_00000157270701782004372960000014528733560007315364_"  style="overflow:visible;"/>
		</clipPath>
		<g style="clip-path:url(#SVGID_00000014615572621492750440000010923366702359171246_);">
			<path class="st5" d="M99.7,43.7c-1.4,0.7-3.2,1.1-5.3,1.1c-2.7,0-4.9-0.9-6.6-2.6c-1.6-1.7-2.5-4-2.5-6.9c0-3.1,0.9-5.5,2.8-7.4
				c1.8-1.9,4.2-2.8,7-2.8c1.8,0,3.3,0.3,4.5,0.8v2.6c-1.4-0.8-2.9-1.1-4.5-1.1c-2.1,0-3.9,0.7-5.2,2.1c-1.3,1.4-2,3.3-2,5.7
				c0,2.3,0.6,4.1,1.9,5.4c1.2,1.3,2.9,2,4.9,2c1.9,0,3.5-0.4,4.9-1.3L99.7,43.7L99.7,43.7z"/>
			<path class="st5" d="M109.7,41c0,0.9,0.1,1.6,0.2,2.1c-1.6,1-3.3,2.2-4.9,3.5l-1.2-1.7c0.6-0.5,0.8-1.3,0.8-2.2V33h-2.8v-1.8h4.7
				v11.9C107.7,42.4,108.7,41.7,109.7,41z M104.4,23.2c1.8,1.8,3.1,3.2,3.9,4.1l-1.7,1.5c-1-1.4-2.3-2.8-3.7-4.2L104.4,23.2z
				 M108.7,33.7h4.2l0.5-3.5h-3.5v-1.7h3.8l0.4-2.9h-4.7V24h16v1.7H116l-0.4,2.9h7.7v5.2h3.1v1.7h-17.6L108.7,33.7L108.7,33.7z
				 M110.8,38H124v9h-1.8v-1.5h-9.5V47h-1.8L110.8,38L110.8,38z M122.2,39.7h-9.5v4.1h9.5V39.7z M121.3,30.3h-6.1l-0.5,3.5h6.6V30.3
				z"/>
			<path class="st5" d="M127.4,26.2h11.5c-0.4-0.9-0.9-1.7-1.5-2.7l1.9-0.9c0.7,1.1,1.3,2.1,1.8,3l-1.1,0.6h11.4V28h-24L127.4,26.2
				L127.4,26.2z M129.8,30.2H149v1.7h-19.2V30.2z M129.8,34H149v1.7h-19.2V34z M130.3,37.9h18.1v9.2h-2v-1.4h-14.1v1.5h-2V37.9z
				 M146.3,39.6h-14.1v4.3h14.1V39.6z"/>
			<path class="st5" d="M152.1,40.2c1.6-2.4,2.9-5.2,3.7-8.4h-3.4v-1.6h3.8v-3.9c-1,0.1-2.1,0.3-3.2,0.4c-0.1-0.6-0.3-1.1-0.5-1.7
				c2.8-0.2,5.6-0.7,8.5-1.3l0.5,1.7c-1.1,0.2-2.3,0.4-3.5,0.6v4.1h3.4v1.6H158V35l1-0.8c0.7,0.7,1.6,1.7,2.9,3.2l-1.5,1.2
				c-1-1.2-1.7-2.2-2.4-2.9v11.4h-1.8V35.3c-0.9,2.8-2,5.2-3.3,7.1C152.7,41.7,152.4,40.9,152.1,40.2z M160.8,44.1h7v-3.6h-5.6v-1.7
				h5.6v-3.4h-6.2v-1.7H176v1.7h-6.2v3.4h5.6v1.7h-5.6v3.6h7v1.7h-16.1v-1.7H160.8z M162.8,24H175v8.5h-1.9v-1h-8.5v1h-1.9L162.8,24
				L162.8,24z M173.1,25.6h-8.5v4.1h8.5V25.6z"/>
			<path class="st5" d="M188.9,23.5l1.8-1c0.6,0.8,1.2,1.7,1.8,2.5l-1.2,0.7h10.5v1.8h-19.6v6.7c0,5.8-1.1,10.2-3.4,13
				c-0.4-0.5-0.9-1.1-1.4-1.7c1.8-2.1,2.7-5.7,2.7-10.8v-9h10.4C189.9,24.9,189.4,24.2,188.9,23.5z M182.8,36h8.7
				c-1.5-1.1-3-2.1-4.4-3l1.2-1.3c1.2,0.7,2.4,1.5,3.5,2.2l4.5-2.6h-12v-1.8h15.6v1.8l-6.4,3.7c0.2,0.1,0.4,0.3,0.6,0.4l-0.7,0.5
				h8.1v1.8l-2.1,4.4c-0.5-0.3-1.1-0.6-1.8-0.9l1.8-3.5h-5.9v5.9c0,2-0.9,3-2.8,3c-1,0-2.2,0-3.7,0c-0.1-0.6-0.2-1.3-0.3-2.1
				c1.3,0.2,2.4,0.3,3.4,0.3c0.9,0,1.4-0.5,1.4-1.4v-5.5H183V36H182.8z"/>
			<path class="st5" d="M211.2,39.7c0,0.8,0.1,1.5,0.2,2.2c-2.2,1.5-3.9,2.6-5,3.5l-1.2-1.6c0.6-0.5,0.8-1.3,0.8-2.2v-8.8h-3.1V31h5
				v11C209,41.3,210.1,40.5,211.2,39.7z M206.3,23.6c1.3,1.2,2.5,2.5,3.6,3.8l-1.7,1.4c-1.2-1.5-2.3-2.9-3.4-3.9L206.3,23.6z
				 M211.2,35.4v-1.7h13.4v1.7c-1.3,2.9-2.9,5.1-4.8,6.7c2.1,1.4,4.6,2.3,7.6,2.9c-0.6,0.7-1.1,1.4-1.5,2c-2.9-0.8-5.5-2.1-7.7-3.7
				c-2.2,1.5-5.1,2.8-8.5,3.9c-0.4-0.6-0.9-1.2-1.3-1.8c3.3-0.9,6-2,8.2-3.4c-1.9-1.8-3.3-4.1-4.2-6.6
				C212.4,35.4,211.2,35.4,211.2,35.4z M221.5,25.8h-6.2v0.7c0,3-1.4,5.3-4.1,6.8c-0.4-0.5-0.9-1.1-1.4-1.5c2.4-1.2,3.6-3,3.6-5.2
				V24h10v5c0,0.7,0.4,1.1,1.1,1.1h2.7c-0.1,0.7-0.1,1.3-0.2,1.8h-3.3c-1.5,0-2.3-0.9-2.3-2.6L221.5,25.8L221.5,25.8z M214.3,35.4
				c0.8,2.1,2.1,3.9,3.9,5.5c1.7-1.3,3.1-3.2,4.2-5.5H214.3z"/>
			<path class="st5" d="M238.1,40.2c0,0.9,0.1,1.6,0.2,2.1c-2.6,1.6-4.8,3.1-6.5,4.3l-1.2-1.7c0.6-0.5,0.9-1.2,0.9-2.2V33H228v-1.8
				h5.5v12C234.9,42.3,236.5,41.3,238.1,40.2z M230.5,23.2c1.8,1.8,3.1,3.2,3.9,4.1l-1.7,1.5c-1-1.4-2.3-2.8-3.7-4.2L230.5,23.2z
				 M235.9,31.3h7.2v-8.5h2.1v8.5h7.2v1.8h-7.2V47h-2.1V33.1h-7.2V31.3z"/>
			<path class="st5" d="M277.7,41c-0.5,0.7-1,1.3-1.3,1.8c-1.5-0.7-2.9-1.6-4.2-2.6v1.4h-5.9v2.6h9.6v1.6h-21.1v-1.6h9.6v-2.6h-6
				v-1.3c-1.3,1.1-2.7,2-4.1,2.8c-0.3-0.4-0.7-1-1.3-1.6c2.5-1.2,4.7-2.8,6.6-4.7h-6.3v-1.6h4.9V27h-4.1v-1.6h4.1v-2.7h1.8v2.7h10.6
				v-2.7h1.8v2.7h4.1V27h-4.1v8.3h4.8v1.6H271C272.8,38.7,275.1,40.1,277.7,41z M264.5,37.7h1.8V40h5.6c-1.2-0.9-2.2-2-3.2-3.2H262
				c-1,1.2-2.1,2.2-3.2,3.2h5.7V37.7z M260.2,28.7h10.6V27h-10.6V28.7z M260.2,32h10.6v-1.7h-10.6V32z M260.2,35.3h10.6v-1.7h-10.6
				V35.3z"/>
			<path class="st5" d="M278.1,36.7c1.9-3.1,3.2-6.5,4-10.2h-3.2v-1.6h8.7v1.6h-3.9c-0.4,1.9-0.9,3.7-1.6,5.4h4.5v12.6H285v-1.7
				h-2.7v2.3h-1.6v-9.8c-0.4,0.9-0.9,1.8-1.4,2.6C279,37.6,278.6,37.2,278.1,36.7z M285.1,33.6h-2.7v7.8h2.7V33.6z M299.7,35v-1.2
				h-3.6v9.9h4v-7.1h1.8v10h-1.8v-1.1h-11.6v-8.9h1.8v7.1h4v-9.9H289v-8.3h1.8V32h3.5v-9h1.8v9.1h3.6v-6.5h1.8V35H299.7z"/>
		</g>
	</g>
	<g>
		<defs>
			<rect id="SVGID_00000058548238780300538360000012489778249868134540_" x="-7" y="-4.5" width="321.6" height="92"/>
		</defs>
		<clipPath id="SVGID_00000067919013397416281300000002522173086051181224_">
			<use xlink:href="#SVGID_00000058548238780300538360000012489778249868134540_"  style="overflow:visible;"/>
		</clipPath>
		<g style="clip-path:url(#SVGID_00000067919013397416281300000002522173086051181224_);">
			<g>
				<path class="st5" d="M118.8,64.6c-0.9,0.4-1.8,0.5-2.7,0.5c-1.4,0-2.6-0.5-3.5-1.5s-1.4-2.2-1.4-3.8c0-1.7,0.5-3.1,1.5-4.1
					s2.2-1.6,3.8-1.6c0.8,0,1.6,0.1,2.3,0.4v0.8c-0.7-0.3-1.5-0.5-2.3-0.5c-1.3,0-2.4,0.5-3.2,1.3c-0.8,0.9-1.2,2.1-1.2,3.6
					c0,1.4,0.4,2.6,1.2,3.4s1.8,1.3,3,1.3c1,0,1.8-0.2,2.6-0.6v0.8H118.8z"/>
				<path class="st5" d="M126,60.7v4.2h-0.7V54.3h2.5c1.1,0,1.9,0.3,2.5,0.8s0.9,1.2,0.9,2.2s-0.3,1.8-1,2.4c-0.6,0.6-1.5,1-2.7,1
					H126z M126,55v5h1.5c1,0,1.7-0.2,2.2-0.7s0.7-1.1,0.7-1.9c0-1.6-0.9-2.4-2.7-2.4C127.7,55,126,55,126,55z"/>
				<path class="st5" d="M136.9,58.1c-0.2-0.2-0.5-0.2-0.8-0.2c-0.6,0-1.1,0.3-1.5,0.9s-0.6,1.5-0.6,2.6v3.5h-0.7v-7.6h0.7V59l0,0
					c0.2-0.6,0.4-1,0.8-1.3s0.8-0.5,1.3-0.5c0.3,0,0.5,0,0.8,0.1V58.1z"/>
				<path class="st5" d="M141.1,65.1c-1.1,0-2-0.4-2.6-1.1c-0.6-0.7-1-1.7-1-2.8c0-1.3,0.3-2.2,1-3c0.7-0.7,1.6-1.1,2.7-1.1
					c1.1,0,1.9,0.4,2.6,1.1c0.6,0.7,0.9,1.7,0.9,2.9s-0.3,2.1-1,2.9C143,64.7,142.2,65.1,141.1,65.1z M141.1,57.8
					c-0.9,0-1.6,0.3-2.1,0.9c-0.5,0.6-0.8,1.4-0.8,2.5c0,1,0.3,1.8,0.8,2.4s1.2,0.9,2.1,0.9c0.9,0,1.6-0.3,2.1-0.9s0.7-1.4,0.7-2.5
					s-0.2-1.9-0.7-2.5C142.7,58.1,142,57.8,141.1,57.8z"/>
				<path class="st5" d="M152.5,64.4c0,1.4-0.3,2.5-0.9,3.1c-0.6,0.7-1.6,1-2.9,1c-0.7,0-1.5-0.2-2.2-0.6v-0.7
					c0.8,0.4,1.6,0.7,2.3,0.7c2.1,0,3.1-1.1,3.1-3.3v-1l0,0c-0.6,1-1.5,1.5-2.7,1.5c-0.9,0-1.7-0.3-2.3-1c-0.6-0.7-0.9-1.6-0.9-2.8
					s0.3-2.2,1-3c0.6-0.8,1.5-1.1,2.5-1.1c1.1,0,1.9,0.5,2.4,1.4l0,0v-1.2h0.7v7H152.5z M151.9,60.3c0-0.7-0.2-1.2-0.7-1.7
					c-0.4-0.5-1-0.7-1.8-0.7s-1.5,0.3-2,0.9c-0.5,0.6-0.8,1.5-0.8,2.5s0.2,1.8,0.7,2.4s1.1,0.9,1.8,0.9c0.8,0,1.5-0.3,1.9-0.8
					c0.5-0.5,0.7-1.2,0.7-1.9v-1.6H151.9z"/>
				<path class="st5" d="M158.5,58.1c-0.2-0.2-0.5-0.2-0.8-0.2c-0.6,0-1.1,0.3-1.5,0.9c-0.4,0.6-0.6,1.5-0.6,2.6v3.5H155v-7.6h0.7
					V59l0,0c0.2-0.6,0.4-1,0.8-1.3c0.4-0.3,0.8-0.5,1.3-0.5c0.3,0,0.5,0,0.8,0.1v0.8H158.5z"/>
				<path class="st5" d="M164.5,64.9v-1.5l0,0c-0.2,0.5-0.6,0.9-1.1,1.2s-1,0.5-1.5,0.5c-0.7,0-1.3-0.2-1.7-0.6s-0.6-0.9-0.6-1.5
					c0-1.3,0.9-2.1,2.6-2.4l2.3-0.3c0-1.6-0.6-2.4-1.8-2.4c-0.8,0-1.6,0.3-2.4,1V58c0.3-0.2,0.7-0.4,1.1-0.6
					c0.5-0.2,0.9-0.2,1.4-0.2c0.8,0,1.4,0.2,1.8,0.7c0.4,0.5,0.6,1.2,0.6,2.1v4.9H164.5z M162.4,61.1c-0.8,0.1-1.3,0.3-1.7,0.5
					c-0.3,0.3-0.5,0.7-0.5,1.2c0,0.4,0.1,0.8,0.4,1.1c0.3,0.3,0.7,0.4,1.2,0.4c0.7,0,1.3-0.3,1.8-0.8s0.7-1.2,0.7-2.1v-0.7
					L162.4,61.1z"/>
				<path class="st5" d="M176.9,64.9v-4.5c0-1-0.1-1.6-0.4-2c-0.3-0.4-0.8-0.6-1.4-0.6c-0.6,0-1.1,0.3-1.5,0.8s-0.6,1.2-0.6,1.9v4.4
					h-0.7v-4.6c0-1.7-0.6-2.5-1.9-2.5c-0.6,0-1.1,0.3-1.5,0.8s-0.6,1.2-0.6,2V65h-0.7v-7.6h0.7v1.3l0,0c0.5-1,1.3-1.4,2.3-1.4
					c0.6,0,1,0.2,1.4,0.5s0.7,0.7,0.8,1.3c0.2-0.5,0.6-1,1-1.3s0.9-0.5,1.4-0.5c1.7,0,2.5,1,2.5,3.1v4.7h-0.8V64.9z"/>
				<path class="st5" d="M189.3,64.9v-4.5c0-1-0.1-1.6-0.4-2c-0.3-0.4-0.8-0.6-1.4-0.6c-0.6,0-1.1,0.3-1.5,0.8s-0.6,1.2-0.6,1.9v4.4
					h-0.7v-4.6c0-1.7-0.6-2.5-1.9-2.5c-0.6,0-1.1,0.3-1.5,0.8s-0.6,1.2-0.6,2V65H180v-7.6h0.7v1.3l0,0c0.5-1,1.3-1.4,2.3-1.4
					c0.6,0,1,0.2,1.4,0.5s0.7,0.7,0.8,1.3c0.2-0.5,0.6-1,1-1.3s0.9-0.5,1.4-0.5c1.7,0,2.5,1,2.5,3.1v4.7h-0.8V64.9z"/>
				<path class="st5" d="M192.6,55.4c-0.2,0-0.3-0.1-0.4-0.2c-0.1-0.1-0.2-0.2-0.2-0.4s0.1-0.3,0.2-0.4s0.2-0.2,0.4-0.2
					s0.3,0,0.4,0.1c0.1,0.1,0.2,0.2,0.2,0.4s-0.1,0.3-0.2,0.4C192.9,55.4,192.8,55.4,192.6,55.4z M192.3,64.9v-7.6h0.7v7.6H192.3z"
					/>
				<path class="st5" d="M200.5,64.9v-4.4c0-1.8-0.7-2.7-2-2.7c-0.7,0-1.3,0.3-1.8,0.8s-0.7,1.2-0.7,2v4.3h-0.7v-7.6h0.7v1.4l0,0
					c0.6-1,1.4-1.6,2.6-1.6c0.8,0,1.4,0.3,1.9,0.8c0.4,0.5,0.6,1.3,0.6,2.3v4.6L200.5,64.9L200.5,64.9z"/>
				<path class="st5" d="M209.5,64.4c0,1.4-0.3,2.5-0.9,3.1c-0.6,0.7-1.6,1-2.9,1c-0.7,0-1.5-0.2-2.2-0.6v-0.7
					c0.8,0.4,1.6,0.7,2.3,0.7c2.1,0,3.1-1.1,3.1-3.3v-1l0,0c-0.6,1-1.5,1.5-2.7,1.5c-0.9,0-1.7-0.3-2.3-1c-0.6-0.7-0.9-1.6-0.9-2.8
					s0.3-2.2,1-3c0.6-0.8,1.5-1.1,2.5-1.1c1.1,0,1.9,0.5,2.4,1.4l0,0v-1.2h0.7v7H209.5z M208.8,60.3c0-0.7-0.2-1.2-0.7-1.7
					c-0.4-0.5-1-0.7-1.8-0.7s-1.5,0.3-2,0.9c-0.5,0.6-0.8,1.5-0.8,2.5s0.2,1.8,0.7,2.4s1.1,0.9,1.8,0.9c0.8,0,1.5-0.3,1.9-0.8
					c0.5-0.5,0.7-1.2,0.7-1.9v-1.6H208.8z"/>
				<path class="st5" d="M216.2,64.9V54.3h0.7v9.9h4.2v0.7C221.1,64.9,216.2,64.9,216.2,64.9z"/>
				<path class="st5" d="M227.5,64.9v-1.5l0,0c-0.2,0.5-0.6,0.9-1.1,1.2s-1,0.5-1.5,0.5c-0.7,0-1.3-0.2-1.7-0.6s-0.6-0.9-0.6-1.5
					c0-1.3,0.9-2.1,2.6-2.4l2.3-0.3c0-1.6-0.6-2.4-1.8-2.4c-0.8,0-1.6,0.3-2.4,1V58c0.3-0.2,0.7-0.4,1.1-0.6
					c0.5-0.2,0.9-0.2,1.4-0.2c0.8,0,1.4,0.2,1.8,0.7c0.4,0.5,0.6,1.2,0.6,2.1v4.9H227.5z M225.5,61.1c-0.8,0.1-1.3,0.3-1.7,0.5
					c-0.3,0.3-0.5,0.7-0.5,1.2c0,0.4,0.1,0.8,0.4,1.1c0.3,0.3,0.7,0.4,1.2,0.4c0.7,0,1.3-0.3,1.8-0.8s0.7-1.2,0.7-2.1v-0.7
					L225.5,61.1z"/>
				<path class="st5" d="M235.6,64.9v-4.4c0-1.8-0.7-2.7-2-2.7c-0.7,0-1.3,0.3-1.8,0.8s-0.7,1.2-0.7,2v4.3h-0.7v-7.6h0.7v1.4l0,0
					c0.6-1,1.4-1.6,2.6-1.6c0.8,0,1.4,0.3,1.9,0.8c0.4,0.5,0.6,1.3,0.6,2.3v4.6L235.6,64.9L235.6,64.9z"/>
				<path class="st5" d="M244.6,64.4c0,1.4-0.3,2.5-0.9,3.1c-0.6,0.7-1.6,1-2.9,1c-0.7,0-1.5-0.2-2.2-0.6v-0.7
					c0.8,0.4,1.6,0.7,2.3,0.7c2.1,0,3.1-1.1,3.1-3.3v-1l0,0c-0.6,1-1.5,1.5-2.7,1.5c-0.9,0-1.7-0.3-2.3-1c-0.6-0.7-0.9-1.6-0.9-2.8
					s0.3-2.2,1-3c0.6-0.8,1.5-1.1,2.5-1.1c1.1,0,1.9,0.5,2.4,1.4l0,0v-1.2h0.7v7H244.6z M244,60.3c0-0.7-0.2-1.2-0.7-1.7
					c-0.4-0.5-1-0.7-1.8-0.7s-1.5,0.3-2,0.9c-0.5,0.6-0.8,1.5-0.8,2.5s0.2,1.8,0.7,2.4s1.1,0.9,1.8,0.9c0.8,0,1.5-0.3,1.9-0.8
					c0.5-0.5,0.7-1.2,0.7-1.9v-1.6H244z"/>
				<path class="st5" d="M252,64.9v-1.4l0,0c-0.5,1-1.3,1.6-2.4,1.6c-1.8,0-2.7-1.1-2.7-3.4v-4.4h0.7v4.2c0,1,0.2,1.8,0.5,2.2
					c0.3,0.5,0.9,0.7,1.6,0.7c0.7,0,1.3-0.3,1.7-0.8c0.4-0.5,0.7-1.2,0.7-2.1v-4.3h0.7v7.6H252V64.9z"/>
				<path class="st5" d="M259.7,64.9v-1.5l0,0c-0.2,0.5-0.6,0.9-1.1,1.2s-1,0.5-1.5,0.5c-0.7,0-1.3-0.2-1.7-0.6s-0.6-0.9-0.6-1.5
					c0-1.3,0.9-2.1,2.6-2.4l2.3-0.3c0-1.6-0.6-2.4-1.8-2.4c-0.8,0-1.6,0.3-2.4,1V58c0.3-0.2,0.7-0.4,1.1-0.6
					c0.5-0.2,0.9-0.2,1.4-0.2c0.8,0,1.4,0.2,1.8,0.7s0.6,1.2,0.6,2.1v4.9H259.7z M257.6,61.1c-0.8,0.1-1.3,0.3-1.7,0.5
					c-0.3,0.3-0.5,0.7-0.5,1.2c0,0.4,0.1,0.8,0.4,1.1c0.3,0.3,0.7,0.4,1.2,0.4c0.7,0,1.3-0.3,1.8-0.8s0.7-1.2,0.7-2.1v-0.7
					L257.6,61.1z"/>
				<path class="st5" d="M268.7,64.4c0,1.4-0.3,2.5-0.9,3.1c-0.6,0.7-1.6,1-2.9,1c-0.7,0-1.5-0.2-2.2-0.6v-0.7
					c0.8,0.4,1.6,0.7,2.3,0.7c2.1,0,3.1-1.1,3.1-3.3v-1l0,0c-0.6,1-1.5,1.5-2.7,1.5c-0.9,0-1.7-0.3-2.3-1c-0.6-0.7-0.9-1.6-0.9-2.8
					s0.3-2.2,1-3c0.6-0.8,1.5-1.1,2.5-1.1c1.1,0,1.9,0.5,2.4,1.4l0,0v-1.2h0.7v7H268.7z M268,60.3c0-0.7-0.2-1.2-0.7-1.7
					c-0.4-0.5-1-0.7-1.8-0.7s-1.5,0.3-2,0.9c-0.5,0.6-0.8,1.5-0.8,2.5s0.2,1.8,0.7,2.4s1.1,0.9,1.8,0.9c0.8,0,1.5-0.3,1.9-0.8
					c0.5-0.5,0.7-1.2,0.7-1.9v-1.6H268z"/>
				<path class="st5" d="M271.3,61.2c0,1,0.2,1.9,0.7,2.4c0.5,0.6,1.1,0.9,2,0.9c0.8,0,1.7-0.3,2.5-0.9v0.7
					c-0.8,0.6-1.7,0.8-2.6,0.8c-1,0-1.8-0.3-2.4-1c-0.6-0.7-0.9-1.7-0.9-3c0-1.1,0.3-2,0.9-2.8s1.4-1.1,2.4-1.1c0.9,0,1.7,0.3,2.2,1
					s0.8,1.6,0.8,2.7v0.3H271.3z M276.1,60.5c0-0.9-0.2-1.6-0.6-2c-0.4-0.5-0.9-0.7-1.6-0.7s-1.3,0.2-1.8,0.7s-0.8,1.2-0.9,2H276.1z
					"/>
			</g>
		</g>
	</g>
</g>
</svg>
